:SAMPLES-PER-SECOND 30
:FULLY-SPECIFIED
:DEGREES
360
root  2.23831 18.6957 -28.3378 -120.972 3.80101 173.143
RightUpLeg  -29.1946 -12.1355 -0.612208
RightLeg  73.3205 13.5283 -10.8973
RightFoot  4.54467 -0.730467 4.50347
RightToes  -5.82073e-011 -3.18055e-015 -2.98177e-016
Spine  25.1262 -4.87522 5.91605
Spine1  1.06879 -4.32382 1.05749
HEad  -24.5128 7.24138 7.18625
LeftShoulder1  -3.88251e-019 9.70628e-020 -3.87848e-018
LeftArm  -1.47214 7.79389 -67.395
LeftForeArm  0.853728 -26.3449 4.36889
LeftHand  -11.1297 -11.3066 69.6946
RightShoulder  2.18208 6.69776 10.6714
RightArm  10.1548 20.9837 73.0163
RightForeArm  35.5529 7.48467 -4.42074
RightHand  -13.5765 12.052 -76.4658
LeftUpLeg  -57.1526 -6.28175 -15.2927
LeftLeg  105.015 -19.2452 17.4395
LeftFoot  -10.8382 0.372741 -20.2212
LeftToes  -2.27483e-011 -5.53417e-011 9.36564e-012
361
root  1.93904 18.8692 -28.7541 -121.172 4.7561 175.569
RightUpLeg  -30.9314 -10.7742 -0.776897
RightLeg  75.4659 13.8804 -11.1353
RightFoot  4.23186 -0.565492 3.52838
RightToes  -5.82073e-011 -3.18055e-015 -2.98177e-016
Spine  26.4078 -4.39488 8.32046
Spine1  -0.00934619 -2.92176 -0.430498
HEad  -24.7906 7.16201 6.93125
LeftShoulder1  -3.88251e-019 9.70628e-020 -3.87848e-018
LeftArm  -3.16336 5.65127 -65.8252
LeftForeArm  3.63614 -27.5841 5.58732
LeftHand  -10.6762 -11.3264 67.4007
RightShoulder  2.26104 6.98124 10.8165
RightArm  9.61903 20.4486 72.4763
RightForeArm  37.0843 6.65903 -4.34956
RightHand  -13.8338 12.161 -77.1766
LeftUpLeg  -55.9495 -4.47076 -14.9938
LeftLeg  103.868 -18.7591 17.1169
LeftFoot  -9.96906 0.529768 -20.1673
LeftToes  -2.27483e-011 -5.53417e-011 9.36564e-012
362
root  1.65842 19.0066 -29.0883 -120.634 5.86971 178.283
RightUpLeg  -34.906 -9.96382 -0.549342
RightLeg  79.8445 14.6649 -11.3436
RightFoot  4.33383 -0.377611 2.28548
RightToes  -5.82073e-011 -3.18055e-015 -2.98177e-016
Spine  27.4501 -3.76262 10.1294
Spine1  -1.43803 -1.62563 -1.42472
HEad  -24.9339 7.39578 6.30424
LeftShoulder1  -3.88251e-019 9.70628e-020 -3.87848e-018
LeftArm  -3.79963 2.01695 -63.1914
LeftForeArm  5.46951 -28.4224 6.15941
LeftHand  -10.2886 -11.4424 65.0923
RightShoulder  2.39246 7.55059 10.9183
RightArm  9.42655 20.0009 71.9285
RightForeArm  38.4052 6.16419 -4.08975
RightHand  -14.0696 12.3366 -77.5744
LeftUpLeg  -55.6056 -2.32342 -14.8333
LeftLeg  102.798 -18.4472 17.1718
LeftFoot  -9.39232 0.648815 -20.6437
LeftToes  -2.27483e-011 -5.53417e-011 9.36564e-012
363
root  1.41662 19.0776 -29.3428 -119.237 6.96631 -179.246
RightUpLeg  -41.0325 -9.41306 0.0298055
RightLeg  86.4621 15.8671 -11.2003
RightFoot  3.83524 -0.256596 1.55733
RightToes  -5.82073e-011 -3.18055e-015 -2.98177e-016
Spine  27.968 -2.81195 10.7882
Spine1  -3.17864 -0.583727 -1.0788
HEad  -24.9771 7.74099 5.49326
LeftShoulder1  -3.88251e-019 9.70628e-020 -3.87848e-018
LeftArm  -4.28545 -2.25915 -60.1713
LeftForeArm  6.65824 -28.4465 6.22207
LeftHand  -10.1817 -11.6292 63.9651
RightShoulder  2.40038 7.98453 10.3731
RightArm  9.23467 19.3334 71.8691
RightForeArm  39.6825 5.87082 -3.91024
RightHand  -14.231 12.4646 -77.8165
LeftUpLeg  -56.1221 -0.522247 -15.0078
LeftLeg  101.719 -18.2578 17.6116
LeftFoot  -9.74631 0.577944 -20.4491
LeftToes  -2.27483e-011 -5.53417e-011 9.36564e-012
364
root  1.19765 19.1051 -29.574 -117.646 7.78166 -177.13
RightUpLeg  -48.0545 -8.58467 0.882879
RightLeg  94.5474 17.1847 -10.3103
RightFoot  2.30146 -0.133071 0.86641
RightToes  -5.82073e-011 -3.18055e-015 -2.98177e-016
Spine  28.2468 -1.87196 11.0501
Spine1  -4.81976 0.27261 -0.354217
HEad  -24.9706 8.04719 4.69093
LeftShoulder1  -3.88251e-019 9.70628e-020 -3.87848e-018
LeftArm  -5.49565 -6.98425 -57.2282
LeftForeArm  6.91845 -27.8952 5.99732
LeftHand  -9.75739 -11.5052 62.1421
RightShoulder  2.33543 8.2174 9.63485
RightArm  9.04622 18.6839 72.0328
RightForeArm  40.6612 5.58182 -3.78666
RightHand  -14.3709 12.5167 -78.2069
LeftUpLeg  -56.7871 0.805058 -15.2639
LeftLeg  100.321 -18.1685 18.7541
LeftFoot  -10.3108 0.463465 -20.0212
LeftToes  -2.27483e-011 -5.53417e-011 9.36564e-012
365
root  0.999972 19.089 -29.8136 -116.319 8.21342 -175.383
RightUpLeg  -55.007 -7.31821 1.83986
RightLeg  102.994 18.2466 -9.01891
RightFoot  -0.743896 -0.0161781 0.0403041
RightToes  -5.82073e-011 -3.18055e-015 -2.98177e-016
Spine  28.4804 -1.38239 11.3406
Spine1  -5.89489 0.787224 -0.12533
HEad  -25.1316 8.7305 4.12678
LeftShoulder1  -3.88251e-019 9.70628e-020 -3.87848e-018
LeftArm  -7.84916 -12.8473 -54.2507
LeftForeArm  6.18212 -26.3012 5.22407
LeftHand  -8.56847 -10.8612 57.6432
RightShoulder  2.39942 8.3882 9.83457
RightArm  9.26296 18.4833 72.2235
RightForeArm  41.594 5.51545 -3.60621
RightHand  -14.5437 12.6005 -78.623
LeftUpLeg  -57.1159 1.77976 -15.3331
LeftLeg  98.835 -18.0379 20.0176
LeftFoot  -10.5571 0.40776 -19.5141
LeftToes  -2.27483e-011 -5.53417e-011 9.36564e-012
